<svg width="90" height="20" viewBox="0 0 90 20" fill="none" xmlns="http://www.w3.org/2000/svg">
<g clip-path="url(#clip0_2335_655)">
<path d="M27.9727 3.12324C27.6435 1.89323 26.6768 0.926623 25.4468 0.597366C23.2197 1.78814e-07 14.285 0 14.285 0C14.285 0 5.35042 1.78814e-07 3.12323 0.597366C1.89323 0.926623 0.926623 1.89323 0.597366 3.12324C1.78814e-07 5.35042 0 10 0 10C0 10 1.78814e-07 14.6496 0.597366 16.8768C0.926623 18.1068 1.89323 19.0734 3.12323 19.4026C5.35042 20 14.285 20 14.285 20C14.285 20 23.2197 20 25.4468 19.4026C26.6768 19.0734 27.6435 18.1068 27.9727 16.8768C28.5701 14.6496 28.5701 10 28.5701 10C28.5701 10 28.5677 5.35042 27.9727 3.12324Z" fill="#FF0000"/>
<path d="M11.4253 14.2849L18.8477 9.99991L11.4253 5.71484V14.2849Z" fill="white"/>
<path d="M34.6024 13.0031L31.3945 1.41797H34.1932L35.3174 6.66961C35.6043 7.96312 35.8136 9.06613 35.95 9.97864H36.0323C36.1264 9.32483 36.3381 8.22888 36.665 6.68843L37.8291 1.41797H40.6278L37.3799 13.0031V18.5605H34.6001V13.0031H34.6024Z" fill="#F8F8F8"/>
<path d="M41.4697 18.1942C40.9053 17.8132 40.5031 17.2205 40.2632 16.4162C40.0257 15.6119 39.9058 14.5442 39.9058 13.2083V11.3903C39.9058 10.0427 40.0422 8.95854 40.315 8.14245C40.5878 7.32637 41.0135 6.729 41.592 6.35506C42.1706 5.98112 42.9302 5.79297 43.871 5.79297C44.7976 5.79297 45.5384 5.98347 46.0981 6.36447C46.6555 6.74546 47.0647 7.34283 47.3234 8.15186C47.5821 8.96324 47.7115 10.0427 47.7115 11.3903V13.2083C47.7115 14.5442 47.5845 15.6166 47.3329 16.4256C47.0812 17.237 46.672 17.8297 46.1075 18.2036C45.5431 18.5776 44.7764 18.7657 43.8098 18.7657C42.8126 18.768 42.0342 18.5752 41.4697 18.1942ZM44.6353 16.2328C44.7905 15.8236 44.8705 15.158 44.8705 14.2314V10.3297C44.8705 9.43126 44.7929 8.77274 44.6353 8.35882C44.4777 7.94255 44.2026 7.73559 43.8074 7.73559C43.4265 7.73559 43.156 7.94255 43.0008 8.35882C42.8432 8.7751 42.7656 9.43126 42.7656 10.3297V14.2314C42.7656 15.158 42.8408 15.8259 42.9914 16.2328C43.1419 16.642 43.4123 16.8466 43.8074 16.8466C44.2026 16.8466 44.4777 16.642 44.6353 16.2328Z" fill="#F8F8F8"/>
<path d="M56.8154 18.5634H54.6094L54.3648 17.03H54.3037C53.7039 18.1871 52.8055 18.7656 51.6061 18.7656C50.7759 18.7656 50.1621 18.4928 49.767 17.9496C49.3719 17.4039 49.1743 16.5526 49.1743 15.3955V6.03751H51.9942V15.2308C51.9942 15.7906 52.0553 16.188 52.1776 16.4256C52.2999 16.6631 52.5045 16.783 52.7914 16.783C53.036 16.783 53.2712 16.7078 53.497 16.5573C53.7228 16.4067 53.8874 16.2162 53.9979 15.9858V6.03516H56.8154V18.5634Z" fill="#F8F8F8"/>
<path d="M64.4755 3.68514H61.6768V18.5605H58.9181V3.68514H56.1194V1.41797H64.4755V3.68514Z" fill="#F8F8F8"/>
<path d="M71.2768 18.5634H69.0708L68.8262 17.03H68.7651C68.1654 18.1871 67.267 18.7656 66.0675 18.7656C65.2373 18.7656 64.6235 18.4928 64.2284 17.9496C63.8333 17.4039 63.6357 16.5526 63.6357 15.3955V6.03751H66.4556V15.2308C66.4556 15.7906 66.5167 16.188 66.639 16.4256C66.7613 16.6631 66.9659 16.783 67.2529 16.783C67.4974 16.783 67.7326 16.7078 67.9584 16.5573C68.1842 16.4067 68.3488 16.2162 68.4593 15.9858V6.03516H71.2768V18.5634Z" fill="#F8F8F8"/>
<path d="M80.6091 8.03821C80.4374 7.248 80.1621 6.6765 79.7812 6.32137C79.4002 5.96625 78.8758 5.78986 78.2079 5.78986C77.6905 5.78986 77.206 5.93567 76.7568 6.22965C76.3076 6.52363 75.9595 6.90698 75.7149 7.3844H75.6938V0.785156H72.9774V18.5603H75.3057L75.5926 17.375H75.6538C75.8725 17.7983 76.1994 18.1299 76.6345 18.3769C77.0696 18.6215 77.5541 18.7438 78.0856 18.7438C79.0381 18.7438 79.7413 18.304 80.1905 17.4267C80.6397 16.5471 80.8654 15.176 80.8654 13.3087V11.3261C80.8654 9.92673 80.7784 8.82843 80.6091 8.03821ZM78.0244 13.1487C78.0244 14.0612 77.9868 14.7762 77.9115 15.2936C77.8363 15.811 77.7116 16.1803 77.5329 16.3966C77.3565 16.6153 77.1166 16.7235 76.8179 16.7235C76.5851 16.7235 76.3711 16.6694 76.1735 16.5589C75.976 16.4507 75.8161 16.2861 75.6938 16.0697V8.96013C75.7878 8.61911 75.9525 8.3416 76.1853 8.12288C76.4158 7.90416 76.6698 7.79597 76.9402 7.79597C77.2272 7.79597 77.4482 7.90886 77.6035 8.13229C77.761 8.35806 77.8692 8.73436 77.9304 9.26587C77.9915 9.79738 78.0221 10.5523 78.0221 11.533V13.1487H78.0244Z" fill="#F8F8F8"/>
<path d="M84.8657 13.8707C84.8657 14.675 84.8892 15.2771 84.9363 15.6793C84.9833 16.0814 85.0821 16.3731 85.2326 16.5589C85.3831 16.7423 85.6136 16.834 85.9264 16.834C86.3474 16.834 86.639 16.6694 86.7942 16.3425C86.9518 16.0156 87.0365 15.47 87.0506 14.708L89.4824 14.8514C89.4965 14.9596 89.5035 15.1101 89.5035 15.3006C89.5035 16.4577 89.186 17.3232 88.5534 17.8947C87.9208 18.4662 87.0247 18.7531 85.8676 18.7531C84.4777 18.7531 83.504 18.318 82.9466 17.4455C82.3869 16.573 82.1094 15.2254 82.1094 13.4003V11.2131C82.1094 9.33404 82.3987 7.96057 82.9772 7.0951C83.5558 6.22962 84.5459 5.79688 85.9499 5.79688C86.9165 5.79688 87.6597 5.97326 88.1771 6.32839C88.6945 6.68351 89.059 7.23385 89.2707 7.98409C89.4824 8.73432 89.5882 9.76913 89.5882 11.0908V13.2357H84.8657V13.8707ZM85.2232 7.96763C85.0797 8.14401 84.9857 8.43328 84.9363 8.83544C84.8892 9.23761 84.8657 9.84674 84.8657 10.6652V11.5636H86.9283V10.6652C86.9283 9.86085 86.9001 9.25172 86.846 8.83544C86.7919 8.41917 86.6931 8.12754 86.5496 7.95586C86.4062 7.78653 86.1851 7.69951 85.8864 7.69951C85.5854 7.70186 85.3643 7.79124 85.2232 7.96763Z" fill="#F8F8F8"/>
</g>
<defs>
<clipPath id="clip0_2335_655">
<rect width="90" height="20" fill="white"/>
</clipPath>
</defs>
</svg>
