<svg width="20" height="20" viewBox="0 0 20 20" fill="none" xmlns="http://www.w3.org/2000/svg">
<path d="M16.9444 17.8638L11.3248 12.2441C10.8974 12.6145 10.3989 12.903 9.82906 13.1095C9.25926 13.3161 8.65385 13.4193 8.01282 13.4193C6.47436 13.4193 5.17094 12.8852 4.10256 11.8168C3.03419 10.7484 2.5 9.45923 2.5 7.94926C2.5 6.43929 3.03419 5.15011 4.10256 4.08174C5.17094 3.01336 6.46724 2.47917 7.99145 2.47917C9.50142 2.47917 10.787 3.01336 11.8483 4.08174C12.9095 5.15011 13.4402 6.43929 13.4402 7.94926C13.4402 8.56179 13.3405 9.15296 13.141 9.72276C12.9416 10.2926 12.6424 10.8268 12.2436 11.3253L17.8846 16.9236L16.9444 17.8638ZM7.99145 12.1373C9.1453 12.1373 10.1282 11.7277 10.9402 10.9087C11.7521 10.0896 12.1581 9.1031 12.1581 7.94926C12.1581 6.79541 11.7521 5.80894 10.9402 4.98986C10.1282 4.17077 9.1453 3.76122 7.99145 3.76122C6.82336 3.76122 5.82977 4.17077 5.01068 4.98986C4.1916 5.80894 3.78205 6.79541 3.78205 7.94926C3.78205 9.1031 4.1916 10.0896 5.01068 10.9087C5.82977 11.7277 6.82336 12.1373 7.99145 12.1373V12.1373Z" fill="#F9F9F9"/>
</svg>
