<svg width="28" height="28" viewBox="0 0 28 28" fill="none" xmlns="http://www.w3.org/2000/svg">
<path d="M11.3167 25.6667L10.7333 21.9917C10.3639 21.8556 9.97501 21.6708 9.56668 21.4375C9.15834 21.2042 8.79862 20.9611 8.48751 20.7083L5.04584 22.2833L2.33334 17.5L5.48334 15.1958C5.44445 15.0208 5.42015 14.8215 5.41043 14.5979C5.4007 14.3743 5.39584 14.175 5.39584 14C5.39584 13.825 5.4007 13.6257 5.41043 13.4021C5.42015 13.1785 5.44445 12.9792 5.48334 12.8042L2.33334 10.5L5.04584 5.71666L8.48751 7.29166C8.79862 7.03888 9.15834 6.79583 9.56668 6.5625C9.97501 6.32916 10.3639 6.15416 10.7333 6.0375L11.3167 2.33333H16.6833L17.2667 6.00833C17.6361 6.14444 18.0299 6.3243 18.4479 6.54791C18.866 6.77152 19.2208 7.01944 19.5125 7.29166L22.9542 5.71666L25.6667 10.5L22.5167 12.7458C22.5556 12.9403 22.5799 13.1493 22.5896 13.3729C22.5993 13.5965 22.6042 13.8056 22.6042 14C22.6042 14.1944 22.5993 14.3986 22.5896 14.6125C22.5799 14.8264 22.5556 15.0306 22.5167 15.225L25.6667 17.5L22.9542 22.2833L19.5125 20.7083C19.2014 20.9611 18.8465 21.209 18.4479 21.4521C18.0493 21.6951 17.6556 21.875 17.2667 21.9917L16.6833 25.6667H11.3167ZM14 17.7917C15.05 17.7917 15.9445 17.4222 16.6833 16.6833C17.4222 15.9444 17.7917 15.05 17.7917 14C17.7917 12.95 17.4222 12.0556 16.6833 11.3167C15.9445 10.5778 15.05 10.2083 14 10.2083C12.95 10.2083 12.0556 10.5778 11.3167 11.3167C10.5778 12.0556 10.2083 12.95 10.2083 14C10.2083 15.05 10.5778 15.9444 11.3167 16.6833C12.0556 17.4222 12.95 17.7917 14 17.7917ZM14 16.0417C13.4361 16.0417 12.9549 15.8424 12.5563 15.4437C12.1576 15.0451 11.9583 14.5639 11.9583 14C11.9583 13.4361 12.1576 12.9549 12.5563 12.5562C12.9549 12.1576 13.4361 11.9583 14 11.9583C14.5639 11.9583 15.0452 12.1576 15.4438 12.5562C15.8424 12.9549 16.0417 13.4361 16.0417 14C16.0417 14.5639 15.8424 15.0451 15.4438 15.4437C15.0452 15.8424 14.5639 16.0417 14 16.0417ZM12.7167 23.9167H15.2833L15.6917 20.65C16.3333 20.4944 16.941 20.2514 17.5146 19.9208C18.0882 19.5903 18.6083 19.1917 19.075 18.725L22.1667 20.0667L23.3333 17.9667L20.5917 15.9542C20.6695 15.6236 20.7327 15.2979 20.7813 14.9771C20.8299 14.6562 20.8542 14.3306 20.8542 14C20.8542 13.6694 20.8347 13.3437 20.7958 13.0229C20.757 12.7021 20.6889 12.3764 20.5917 12.0458L23.3333 10.0333L22.1667 7.93333L19.075 9.275C18.6278 8.76944 18.1222 8.34652 17.5583 8.00625C16.9945 7.66597 16.3722 7.44722 15.6917 7.35L15.2833 4.08333H12.7167L12.3083 7.35C11.6472 7.48611 11.0299 7.71944 10.4563 8.05C9.88265 8.38055 9.37223 8.78888 8.92501 9.275L5.83334 7.93333L4.66668 10.0333L7.40834 12.0458C7.33057 12.3764 7.26737 12.7021 7.21876 13.0229C7.17015 13.3437 7.14584 13.6694 7.14584 14C7.14584 14.3306 7.17015 14.6562 7.21876 14.9771C7.26737 15.2979 7.33057 15.6236 7.40834 15.9542L4.66668 17.9667L5.83334 20.0667L8.92501 18.725C9.39168 19.1917 9.91182 19.5903 10.4854 19.9208C11.059 20.2514 11.6667 20.4944 12.3083 20.65L12.7167 23.9167Z" fill="#F9F9F9"/>
</svg>
