<svg width="28" height="28" viewBox="0 0 28 28" fill="none" xmlns="http://www.w3.org/2000/svg">
<path d="M15.645 14L22.995 6.66167C23.2147 6.44198 23.3381 6.14402 23.3381 5.83333C23.3381 5.52265 23.2147 5.22469 22.995 5.005C22.7753 4.78531 22.4773 4.66189 22.1667 4.66189C21.856 4.66189 21.558 4.78531 21.3383 5.005L14 12.355L6.66166 5.005C6.44197 4.78531 6.14401 4.66189 5.83333 4.66189C5.52264 4.66189 5.22468 4.78531 5.00499 5.005C4.78531 5.22469 4.66189 5.52265 4.66189 5.83333C4.66189 6.14402 4.78531 6.44198 5.00499 6.66167L12.355 14L5.00499 21.3383C4.89565 21.4468 4.80885 21.5758 4.74962 21.718C4.69039 21.8602 4.6599 22.0127 4.6599 22.1667C4.6599 22.3207 4.69039 22.4732 4.74962 22.6153C4.80885 22.7575 4.89565 22.8865 5.00499 22.995C5.11345 23.1043 5.24249 23.1911 5.38466 23.2504C5.52682 23.3096 5.67931 23.3401 5.83333 23.3401C5.98734 23.3401 6.13983 23.3096 6.282 23.2504C6.42417 23.1911 6.5532 23.1043 6.66166 22.995L14 15.645L21.3383 22.995C21.4468 23.1043 21.5758 23.1911 21.718 23.2504C21.8602 23.3096 22.0126 23.3401 22.1667 23.3401C22.3207 23.3401 22.4732 23.3096 22.6153 23.2504C22.7575 23.1911 22.8865 23.1043 22.995 22.995C23.1043 22.8865 23.1911 22.7575 23.2504 22.6153C23.3096 22.4732 23.3401 22.3207 23.3401 22.1667C23.3401 22.0127 23.3096 21.8602 23.2504 21.718C23.1911 21.5758 23.1043 21.4468 22.995 21.3383L15.645 14Z" fill="#F9F9F9"/>
</svg>
