<svg width="28" height="28" viewBox="0 0 28 28" fill="none" xmlns="http://www.w3.org/2000/svg">
<path d="M25.3283 23.6717L21 19.3783C22.6801 17.2835 23.4938 14.6245 23.2736 11.9482C23.0535 9.27185 21.8163 6.78158 19.8164 4.98942C17.8166 3.19726 15.2061 2.23943 12.5217 2.31288C9.83738 2.38634 7.28318 3.48549 5.38434 5.38433C3.48549 7.28317 2.38634 9.83738 2.31289 12.5217C2.23943 15.2061 3.19726 17.8166 4.98942 19.8164C6.78158 21.8163 9.27186 23.0535 11.9482 23.2736C14.6245 23.4938 17.2835 22.6801 19.3783 21L23.6717 25.2933C23.7801 25.4027 23.9092 25.4895 24.0513 25.5487C24.1935 25.6079 24.346 25.6384 24.5 25.6384C24.654 25.6384 24.8065 25.6079 24.9487 25.5487C25.0908 25.4895 25.2199 25.4027 25.3283 25.2933C25.5386 25.0758 25.6562 24.7851 25.6562 24.4825C25.6562 24.1799 25.5386 23.8892 25.3283 23.6717V23.6717ZM12.8333 21C11.2181 21 9.63918 20.521 8.29618 19.6237C6.95318 18.7263 5.90644 17.4508 5.28832 15.9586C4.6702 14.4663 4.50848 12.8243 4.82359 11.2401C5.1387 9.65592 5.9165 8.20076 7.05863 7.05863C8.20076 5.9165 9.65592 5.1387 11.2401 4.82359C12.8243 4.50847 14.4663 4.6702 15.9586 5.28832C17.4508 5.90643 18.7263 6.95317 19.6237 8.29618C20.521 9.63918 21 11.2181 21 12.8333C21 14.9993 20.1396 17.0765 18.608 18.608C17.0765 20.1396 14.9993 21 12.8333 21V21Z" fill="#F9F9F9"/>
</svg>
