<?xml version="1.0" encoding="utf-8"?>
<!-- Generator: Adobe Illustrator 25.4.1, SVG Export Plug-In . SVG Version: 6.00 Build 0)  -->
<svg version="1.1" id="SurrealDB" xmlns="http://www.w3.org/2000/svg" xmlns:xlink="http://www.w3.org/1999/xlink" x="0px" y="0px"
	 viewBox="0 0 4556.4 979.9" style="enable-background:new 0 0 4556.4 979.9;" xml:space="preserve">
<style type="text/css">
	.st0{fill:url(#DB_00000131325159217074528980000011498496901922200726_);}
	.st1{fill:#FFFFFF;}
	.st2{fill:url(#Icon_00000042733166574990169790000002818910808938050475_);}
</style>
<linearGradient id="DB_00000034071243122191611140000007718400840105821099_" gradientUnits="userSpaceOnUse" x1="3824.8142" y1="872.9349" x2="4261.3516" y2="116.8302" gradientTransform="matrix(1 0 0 -1 0 980)">
	<stop  offset="0" style="stop-color:#FF00A0"/>
	<stop  offset="1" style="stop-color:#9600FF"/>
</linearGradient>
<path id="DB" style="fill:url(#DB_00000034071243122191611140000007718400840105821099_);" d="M4485.5,470.9
	c84.5-64.2,39.3-205.8-52.4-238c-20.2-8.3-41.6-11.9-64.2-11.9h-221.3v536.6c13.1,0,251,0,251,0c42.8,0,83.3-15.5,113-44
	C4578.4,649.4,4571.2,518.5,4485.5,470.9z M4254.7,329.3h110.6c28.6,0,52.3,20.2,51.2,50c1.2,28.6-22.6,52.4-51.2,51.2h-110.6V329.3
	z M4392.7,650.6h-138V534h138c28.6-1.2,52.4,30.9,51.2,59.5C4445.1,620.8,4421.3,651.8,4392.7,650.6z M3937.8,241.3
	c-33.3-13.1-70.2-20.2-110.6-20.2h-199.9v536.6h199.9c42.8,0,80.9-7.1,114.2-20.2c102.3-39.3,159.4-140.4,158.2-248.7
	C4100.8,380.5,4040.1,280.5,3937.8,241.3z M3985.4,489.9c1.1,84.5-69.1,161.9-154.7,160.7h-97.6V329.3h97.6
	C3916.4,328.1,3986.6,406.6,3985.4,489.9z"/>
<g id="Surreal">
	<path id="l" class="st1" d="M3472.2,221.1v536.6h107.1V221.1H3472.2z"/>
	<path id="a" class="st1" d="M3216.5,349.5c-115.1,0-207.7,91.4-207.7,204.1s92.5,204.1,207.7,204.1c36.8,0,71.2-9.5,100.9-26.1
		v26.1h106.8V553.6C3424.2,440.9,3331.6,349.5,3216.5,349.5z M3215.3,659.2c-60.6,0-108-47.5-108-106.8c0-58.2,48.7-106.8,108-106.8
		c60.6,0,108,47.5,108,106.8S3274.6,659.2,3215.3,659.2z"/>
	<path id="e" class="st1" d="M2751.3,349.6c123.5-3.6,231.7,115.3,205.5,241.2h-304.2c28.6,78.4,131.9,95.1,180.6,28.6h116.5
		c-48.7,145-242.4,184.2-347,78.4C2468.5,565.8,2569.4,348.4,2751.3,349.6z M2849.9,517c-35.7-92.7-161.6-92.7-197.3,0H2849.9z"/>
	<path id="r" class="st1" d="M2517.1,349.6c-91.6,0-172.5,59.5-199.9,146.3c-5.9,20.2-9.5,41.6-9.5,63.1v198.7h107.1
		c0,0,0-190.3,0-198.7c2.4-71.4,52.3-107.1,102.3-107.1L2517.1,349.6z"/>
	<path id="r_00000093863150956384291220000002169458381189141395_" class="st1" d="M2283.7,349.6c-91.6,0-172.5,59.5-199.9,146.3
		c-5.9,20.2-9.5,41.6-9.5,63.1v198.7h107.1c0,0,0-190.3,0-198.7c2.4-71.4,52.4-107.1,102.3-107.1L2283.7,349.6z"/>
	<path id="u" class="st1" d="M1919.2,349.6v198.6c-5.9,141.6-199.9,141.6-204.6,0V349.5h-107.1v198.7c0,21.4,3.6,42.8,9.5,63.1
		c27.4,86.9,108.3,146.3,199.9,146.3s172.5-59.5,199.9-146.3c5.9-20.2,9.5-41.6,9.5-63.1V349.6H1919.2z"/>
	<path id="S" class="st1" d="M1412.1,444.4c-45.1-7.1-98.7-15.4-134.3-43.8c-22.6-17.9-13.1-46.3,10.7-61.8
		c46.3-29.8,123.5-13.1,139,41.5h121.2c0-97.4-104.6-160.4-202-159.2c-54.7,0-105.8,13.1-145,45.1c-47.4,38-71.2,110.5-41.5,164
		c48.7,79.6,166.4,78.4,246,110.4c21.4,10.7,34.5,22.6,34.5,45.1c0,48.7-43.9,68.9-93.9,68.9c-47.4,1.2-83.1-34.5-87.9-78.4H1140
		c3.6,172.3,232.9,234.1,362.4,131.8c36.8-30.9,57-74.8,57-122.3C1560.6,508.5,1487,456.3,1412.1,444.4z"/>
</g>
<linearGradient id="Icon_00000033344411714133337050000008493637033666045877_" gradientUnits="userSpaceOnUse" x1="203.3477" y1="-1815.3029" x2="636.6956" y2="-1064.7222" gradientTransform="matrix(1 0 0 1 0 1930)">
	<stop  offset="0" style="stop-color:#FF00A0"/>
	<stop  offset="1" style="stop-color:#9600FF"/>
</linearGradient>
<path id="Icon" style="fill:url(#Icon_00000033344411714133337050000008493637033666045877_);" d="M420,257.8L653.3,387v-51.8
	L420,206.3c-34.7,19.2-202.4,111.9-233.3,128.9c28.7,15.9,330.1,182.4,513.3,283.6v51.6c-24.9,13.8-280,154.7-280,154.7
	C350.2,786.6,209.7,709,140,670.4V515.7l280,154.7l46.7-25.8L93.3,438.4v257.9L420,876.7c32.2-17.8,302.8-167.3,326.6-180.5V593.1
	L280,335.2L420,257.8z M93.3,283.6v103.2l466.6,257.9l-140,77.4L186.6,592.9v51.8l233.3,128.9c34.7-19.2,202.4-111.9,233.3-128.9
	C624.5,628.8,323.2,462.3,140,361v-51.6c24.9-13.8,280-154.7,280-154.7c69.7,38.6,210.2,116.2,280,154.7v154.7L420,309.4l-46.7,25.8
	l373.3,206.3V283.6L420,103.1C387.7,121,117.2,270.5,93.3,283.6z M420,0L0,232.1v515.7l420,232.1l420-232V232.1L420,0z M793.2,722
	L420,928.3L46.7,722V257.9L420,51.6l373.3,206.3L793.2,722z"/>
</svg>
